<svg width="216" height="72" viewBox="0 0 216 72" fill="none" xmlns="http://www.w3.org/2000/svg">
<rect width="216" height="72" rx="12" fill="#121212"/>
<path d="M146.747 34.5616V38.6855H144.162V41.3899H146.747V50.5788C146.747 53.7165 148.166 54.9716 151.737 54.9716C152.365 54.9716 152.962 54.8969 153.485 54.8072V52.1327C153.037 52.1776 152.753 52.2074 152.26 52.2074C150.661 52.2074 149.959 51.4604 149.959 49.7571V41.3899H153.485V38.6855H149.959V34.5616H146.747Z" fill="white"/>
<path d="M162.582 55.1957C167.333 55.1957 170.247 52.0132 170.247 46.7389C170.247 41.4945 167.319 38.297 162.582 38.297C157.831 38.297 154.902 41.4945 154.902 46.7389C154.902 52.0132 157.816 55.1957 162.582 55.1957ZM162.582 52.3419C159.788 52.3419 158.219 50.2949 158.219 46.7389C158.219 43.2127 159.788 41.1508 162.582 41.1508C165.361 41.1508 166.945 43.2127 166.945 46.7389C166.945 50.28 165.361 52.3419 162.582 52.3419Z" fill="white"/>
<path d="M172.74 54.882H175.952V45.2746C175.952 42.9886 177.671 41.4496 180.106 41.4496C180.674 41.4496 181.63 41.5542 181.899 41.6439V38.4763C181.555 38.3866 180.943 38.3418 180.465 38.3418C178.343 38.3418 176.535 39.5073 176.072 41.106H175.833V38.6108H172.74V54.882Z" fill="white"/>
<path d="M189.875 41.0313C192.251 41.0313 193.805 42.6898 193.88 45.2448H185.662C185.841 42.7047 187.5 41.0313 189.875 41.0313ZM193.865 50.4892C193.267 51.7592 191.937 52.4614 189.995 52.4614C187.425 52.4614 185.766 50.6535 185.662 47.7997V47.6204H197.152V46.4998C197.152 41.3899 194.417 38.297 189.89 38.297C185.303 38.297 182.39 41.599 182.39 46.7987C182.39 51.9983 185.243 55.1957 189.905 55.1957C193.626 55.1957 196.225 53.4028 196.957 50.4892H193.865Z" fill="white"/>
<path d="M125.68 48.8733C125.928 52.8687 129.257 55.424 134.213 55.424C139.509 55.424 142.824 52.7448 142.824 48.4706C142.824 45.1101 140.934 43.2517 136.35 42.1832L133.888 41.5792C130.976 40.8978 129.799 39.9841 129.799 38.389C129.799 36.3758 131.627 35.0595 134.368 35.0595C136.97 35.0595 138.766 36.3448 139.091 38.4045H142.467C142.266 34.6413 138.952 31.9932 134.414 31.9932C129.536 31.9932 126.284 34.6413 126.284 38.6213C126.284 41.9044 128.127 43.8557 132.169 44.8004L135.049 45.4972C138.007 46.1941 139.308 47.2162 139.308 48.9197C139.308 50.902 137.264 52.3422 134.476 52.3422C131.488 52.3422 129.412 50.9949 129.118 48.8733H125.68Z" fill="white"/>
<path d="M92.4029 38.3418C90.1916 38.3418 88.2791 39.4475 87.293 41.3002H87.0539V38.6108H83.961V60.2907H87.1734V52.4166H87.4274C88.2791 54.1349 90.1169 55.1509 92.4328 55.1509C96.5417 55.1509 99.1565 51.9086 99.1565 46.7389C99.1565 41.5692 96.5417 38.3418 92.4029 38.3418ZM91.4915 52.2672C88.8021 52.2672 87.1137 50.1455 87.1137 46.7538C87.1137 43.3472 88.8021 41.2255 91.5065 41.2255C94.2258 41.2255 95.8544 43.3024 95.8544 46.7389C95.8544 50.1904 94.2258 52.2672 91.4915 52.2672Z" fill="white"/>
<path d="M110.397 38.3418C108.186 38.3418 106.273 39.4475 105.287 41.3002H105.048V38.6108H101.955V60.2907H105.168V52.4166H105.422C106.273 54.1349 108.111 55.1509 110.427 55.1509C114.536 55.1509 117.151 51.9086 117.151 46.7389C117.151 41.5692 114.536 38.3418 110.397 38.3418ZM109.486 52.2672C106.796 52.2672 105.108 50.1455 105.108 46.7538C105.108 43.3472 106.796 41.2255 109.501 41.2255C112.22 41.2255 113.849 43.3024 113.849 46.7389C113.849 50.1904 112.22 52.2672 109.486 52.2672Z" fill="white"/>
<path d="M78.1974 54.882H81.8832L73.8148 32.5352H70.0826L62.0142 54.882H65.5761L67.6358 48.9507H76.1532L78.1974 54.882ZM71.7706 36.5926H72.0339L75.2705 46.0393H68.5185L71.7706 36.5926Z" fill="white"/>
<path d="M64.172 15.6797V26.4599H68.0642C71.2766 26.4599 73.1368 24.4802 73.1368 21.0362C73.1368 17.6445 71.2617 15.6797 68.0642 15.6797H64.172ZM65.8454 17.2037H67.8775C70.1112 17.2037 71.4335 18.6232 71.4335 21.0586C71.4335 23.5314 70.1336 24.9359 67.8775 24.9359H65.8454V17.2037Z" fill="white"/>
<path d="M78.834 26.6168C81.2097 26.6168 82.6665 25.0256 82.6665 22.3884C82.6665 19.7662 81.2022 18.1675 78.834 18.1675C76.4583 18.1675 74.9941 19.7662 74.9941 22.3884C74.9941 25.0256 76.4508 26.6168 78.834 26.6168ZM78.834 25.1899C77.437 25.1899 76.6526 24.1664 76.6526 22.3884C76.6526 20.6253 77.437 19.5944 78.834 19.5944C80.2235 19.5944 81.0154 20.6253 81.0154 22.3884C81.0154 24.159 80.2235 25.1899 78.834 25.1899Z" fill="white"/>
<path d="M95.0723 18.3243H93.4661L92.0168 24.5325H91.8898L90.2164 18.3243H88.6774L87.004 24.5325H86.8844L85.4276 18.3243H83.799L86.0402 26.4599H87.6913L89.3647 20.4684H89.4917L91.1726 26.4599H92.8386L95.0723 18.3243Z" fill="white"/>
<path d="M96.9221 26.4599H98.5283V21.7011C98.5283 20.4311 99.2828 19.6392 100.471 19.6392C101.658 19.6392 102.226 20.2891 102.226 21.5965V26.4599H103.832V21.1931C103.832 19.2582 102.831 18.1675 101.016 18.1675C99.7908 18.1675 98.984 18.7128 98.588 19.6168H98.4685V18.3243H96.9221V26.4599Z" fill="white"/>
<path d="M106.362 26.4599H107.968V15.1493H106.362V26.4599Z" fill="white"/>
<path d="M114.009 26.6168C116.385 26.6168 117.842 25.0256 117.842 22.3884C117.842 19.7662 116.377 18.1675 114.009 18.1675C111.633 18.1675 110.169 19.7662 110.169 22.3884C110.169 25.0256 111.626 26.6168 114.009 26.6168ZM114.009 25.1899C112.612 25.1899 111.828 24.1664 111.828 22.3884C111.828 20.6253 112.612 19.5944 114.009 19.5944C115.399 19.5944 116.191 20.6253 116.191 22.3884C116.191 24.159 115.399 25.1899 114.009 25.1899Z" fill="white"/>
<path d="M122.627 25.2422C121.753 25.2422 121.118 24.8164 121.118 24.0843C121.118 23.3671 121.626 22.9861 122.747 22.9114L124.734 22.7844V23.4642C124.734 24.4727 123.838 25.2422 122.627 25.2422ZM122.216 26.5944C123.285 26.5944 124.174 26.1312 124.659 25.3169H124.786V26.4599H126.333V20.9017C126.333 19.1835 125.182 18.1675 123.143 18.1675C121.297 18.1675 119.983 19.0639 119.818 20.461H121.372C121.551 19.8857 122.172 19.557 123.068 19.557C124.166 19.557 124.734 20.0426 124.734 20.9017V21.604L122.53 21.731C120.595 21.8505 119.505 22.6947 119.505 24.159C119.505 25.6456 120.648 26.5944 122.216 26.5944Z" fill="white"/>
<path d="M131.783 26.5944C132.904 26.5944 133.853 26.064 134.338 25.175H134.465V26.4599H136.004V15.1493H134.398V19.6168H134.279C133.838 18.7203 132.896 18.1899 131.783 18.1899C129.729 18.1899 128.407 19.8185 128.407 22.3884C128.407 24.9658 129.714 26.5944 131.783 26.5944ZM132.239 19.6317C133.584 19.6317 134.428 20.7 134.428 22.3959C134.428 24.0992 133.591 25.1526 132.239 25.1526C130.879 25.1526 130.065 24.1141 130.065 22.3884C130.065 20.6776 130.887 19.6317 132.239 19.6317Z" fill="white"/>
<path d="M146.42 26.6168C148.796 26.6168 150.252 25.0256 150.252 22.3884C150.252 19.7662 148.788 18.1675 146.42 18.1675C144.044 18.1675 142.58 19.7662 142.58 22.3884C142.58 25.0256 144.037 26.6168 146.42 26.6168ZM146.42 25.1899C145.023 25.1899 144.239 24.1664 144.239 22.3884C144.239 20.6253 145.023 19.5944 146.42 19.5944C147.81 19.5944 148.601 20.6253 148.601 22.3884C148.601 24.159 147.81 25.1899 146.42 25.1899Z" fill="white"/>
<path d="M152.379 26.4599H153.985V21.7011C153.985 20.4311 154.739 19.6392 155.927 19.6392C157.115 19.6392 157.683 20.2891 157.683 21.5965V26.4599H159.289V21.1931C159.289 19.2582 158.288 18.1675 156.473 18.1675C155.247 18.1675 154.44 18.7128 154.045 19.6168H153.925V18.3243H152.379V26.4599Z" fill="white"/>
<path d="M166.686 16.2998V18.3617H165.394V19.7139H166.686V24.3084C166.686 25.8772 167.396 26.5048 169.182 26.5048C169.495 26.5048 169.794 26.4674 170.056 26.4226V25.0853C169.832 25.1077 169.69 25.1227 169.443 25.1227C168.644 25.1227 168.293 24.7491 168.293 23.8975V19.7139H170.056V18.3617H168.293V16.2998H166.686Z" fill="white"/>
<path d="M172.212 26.4599H173.818V21.7086C173.818 20.4759 174.55 19.6467 175.865 19.6467C177.001 19.6467 177.606 20.3041 177.606 21.604V26.4599H179.212V21.208C179.212 19.2731 178.144 18.1749 176.41 18.1749C175.185 18.1749 174.326 18.7203 173.93 19.6317H173.803V15.1493H172.212V26.4599Z" fill="white"/>
<path d="M185.006 19.5346C186.194 19.5346 186.971 20.3638 187.008 21.6413H182.899C182.989 20.3713 183.818 19.5346 185.006 19.5346ZM187.001 24.2635C186.702 24.8986 186.037 25.2497 185.066 25.2497C183.781 25.2497 182.952 24.3457 182.899 22.9188V22.8292H188.644V22.2689C188.644 19.7139 187.277 18.1675 185.014 18.1675C182.72 18.1675 181.263 19.8185 181.263 22.4183C181.263 25.0181 182.69 26.6168 185.021 26.6168C186.881 26.6168 188.181 25.7203 188.547 24.2635H187.001Z" fill="white"/>
<path d="M44.5842 36.5415C44.6232 33.5157 46.2482 30.6526 48.826 29.0678C47.1998 26.7452 44.4759 25.2726 41.6419 25.184C38.6193 24.8667 35.689 26.9926 34.1487 26.9926C32.5786 26.9926 30.2071 25.2155 27.6534 25.268C24.3247 25.3755 21.2216 27.268 19.6021 30.1782C16.1209 36.2053 18.7176 45.0632 22.0523 49.9351C23.7207 52.3207 25.6706 54.9855 28.222 54.891C30.7187 54.7875 31.6512 53.299 34.665 53.299C37.6507 53.299 38.5256 54.891 41.1288 54.831C43.8078 54.7875 45.4958 52.4347 47.1057 50.0265C48.3044 48.3267 49.2269 46.448 49.8388 44.46C46.6904 43.1284 44.5879 39.9599 44.5842 36.5415Z" fill="white"/>
<path d="M39.6672 21.98C41.128 20.2264 41.8476 17.9725 41.6733 15.6968C39.4416 15.9312 37.3802 16.9978 35.8997 18.6841C34.452 20.3317 33.6986 22.546 33.841 24.7346C36.0735 24.7576 38.2682 23.7199 39.6672 21.98Z" fill="white"/>
<rect width="216" height="72" rx="12" stroke="#A6A6A6"/>
</svg>
