<svg width="1368" height="376" viewBox="0 0 1368 376" fill="none" xmlns="http://www.w3.org/2000/svg">
<path d="M1207.3 365V342.076H1210.29V365H1207.3ZM1207.3 337.28V332.88H1210.29V337.28H1207.3ZM1235.53 365H1232.54V352.196C1232.54 349.497 1232.14 347.532 1231.35 346.3C1230.56 345.039 1229.31 344.408 1227.61 344.408C1226.44 344.408 1225.28 344.701 1224.13 345.288C1222.99 345.845 1221.98 346.623 1221.1 347.62C1220.25 348.588 1219.63 349.703 1219.25 350.964V365H1216.26V342.076H1218.99V347.268C1219.6 346.153 1220.41 345.185 1221.41 344.364C1222.4 343.513 1223.53 342.853 1224.79 342.384C1226.06 341.915 1227.36 341.68 1228.71 341.68C1229.97 341.68 1231.04 341.915 1231.92 342.384C1232.8 342.853 1233.51 343.528 1234.03 344.408C1234.56 345.259 1234.94 346.3 1235.18 347.532C1235.41 348.735 1235.53 350.084 1235.53 351.58V365ZM1285.98 365H1282.99V352.196C1282.99 349.527 1282.56 347.561 1281.71 346.3C1280.86 345.039 1279.6 344.408 1277.93 344.408C1276.19 344.408 1274.64 345.024 1273.26 346.256C1271.91 347.488 1270.96 349.072 1270.4 351.008V365H1267.41V352.196C1267.41 349.497 1267 347.532 1266.18 346.3C1265.36 345.039 1264.09 344.408 1262.39 344.408C1260.69 344.408 1259.15 345.009 1257.77 346.212C1256.39 347.415 1255.43 348.999 1254.87 350.964V365H1251.88V342.076H1254.61V347.268C1255.57 345.479 1256.81 344.1 1258.3 343.132C1259.83 342.164 1261.51 341.68 1263.36 341.68C1265.27 341.68 1266.81 342.223 1267.98 343.308C1269.15 344.393 1269.87 345.816 1270.14 347.576C1271.19 345.64 1272.45 344.173 1273.92 343.176C1275.42 342.179 1277.1 341.68 1278.98 341.68C1280.27 341.68 1281.36 341.915 1282.24 342.384C1283.15 342.853 1283.87 343.528 1284.39 344.408C1284.95 345.259 1285.35 346.3 1285.58 347.532C1285.85 348.735 1285.98 350.084 1285.98 351.58V365ZM1291.47 355.54V342.076H1294.46V355.012C1294.46 357.623 1294.9 359.573 1295.78 360.864C1296.69 362.155 1298.02 362.8 1299.78 362.8C1300.96 362.8 1302.09 362.551 1303.17 362.052C1304.29 361.524 1305.27 360.791 1306.12 359.852C1306.97 358.884 1307.62 357.769 1308.06 356.508V342.076H1311.05V361.392C1311.05 361.803 1311.14 362.111 1311.31 362.316C1311.49 362.492 1311.75 362.595 1312.1 362.624V365C1311.75 365.029 1311.47 365.044 1311.27 365.044C1311.06 365.073 1310.87 365.088 1310.7 365.088C1310.11 365.029 1309.6 364.795 1309.16 364.384C1308.74 363.973 1308.52 363.475 1308.5 362.888L1308.41 359.808C1307.41 361.568 1306.05 362.947 1304.32 363.944C1302.61 364.941 1300.77 365.44 1298.77 365.44C1296.37 365.44 1294.55 364.604 1293.32 362.932C1292.08 361.26 1291.47 358.796 1291.47 355.54ZM1324.71 365.44C1322.83 365.44 1321.09 365.132 1319.48 364.516C1317.86 363.9 1316.47 362.961 1315.3 361.7L1316.53 359.588C1317.82 360.791 1319.11 361.671 1320.4 362.228C1321.72 362.756 1323.11 363.02 1324.58 363.02C1326.37 363.02 1327.82 362.668 1328.94 361.964C1330.05 361.231 1330.61 360.189 1330.61 358.84C1330.61 357.931 1330.33 357.241 1329.77 356.772C1329.24 356.273 1328.47 355.877 1327.44 355.584C1326.44 355.261 1325.24 354.924 1323.83 354.572C1322.25 354.132 1320.91 353.677 1319.83 353.208C1318.77 352.709 1317.97 352.093 1317.41 351.36C1316.88 350.597 1316.62 349.615 1316.62 348.412C1316.62 346.916 1316.98 345.684 1317.72 344.716C1318.48 343.719 1319.51 342.971 1320.8 342.472C1322.12 341.944 1323.58 341.68 1325.2 341.68C1326.96 341.68 1328.51 341.959 1329.86 342.516C1331.21 343.073 1332.31 343.851 1333.16 344.848L1331.71 346.872C1330.89 345.933 1329.9 345.244 1328.76 344.804C1327.65 344.335 1326.4 344.1 1325.02 344.1C1324.08 344.1 1323.19 344.232 1322.34 344.496C1321.49 344.731 1320.78 345.141 1320.22 345.728C1319.7 346.285 1319.43 347.063 1319.43 348.06C1319.43 348.881 1319.64 349.527 1320.05 349.996C1320.46 350.436 1321.07 350.817 1321.9 351.14C1322.72 351.433 1323.73 351.756 1324.93 352.108C1326.66 352.577 1328.17 353.061 1329.46 353.56C1330.75 354.029 1331.75 354.645 1332.46 355.408C1333.16 356.171 1333.51 357.241 1333.51 358.62C1333.51 360.761 1332.71 362.433 1331.09 363.636C1329.48 364.839 1327.35 365.44 1324.71 365.44ZM1337.83 365V342.076H1340.83V365H1337.83ZM1337.83 337.28V332.88H1340.83V337.28H1337.83ZM1356.74 365.44C1355.06 365.44 1353.52 365.132 1352.12 364.516C1350.74 363.871 1349.52 362.991 1348.46 361.876C1347.44 360.761 1346.63 359.485 1346.04 358.048C1345.49 356.611 1345.21 355.085 1345.21 353.472C1345.21 351.301 1345.69 349.321 1346.66 347.532C1347.63 345.743 1348.98 344.32 1350.71 343.264C1352.44 342.208 1354.43 341.68 1356.69 341.68C1358.83 341.68 1360.73 342.179 1362.37 343.176C1364.01 344.144 1365.23 345.464 1366.02 347.136L1363.12 348.06C1362.47 346.887 1361.56 345.977 1360.39 345.332C1359.24 344.657 1357.97 344.32 1356.56 344.32C1355.03 344.32 1353.64 344.716 1352.38 345.508C1351.12 346.3 1350.11 347.385 1349.34 348.764C1348.61 350.143 1348.24 351.712 1348.24 353.472C1348.24 355.203 1348.63 356.772 1349.39 358.18C1350.15 359.588 1351.16 360.717 1352.42 361.568C1353.69 362.389 1355.08 362.8 1356.6 362.8C1357.6 362.8 1358.55 362.624 1359.46 362.272C1360.4 361.92 1361.21 361.451 1361.88 360.864C1362.59 360.248 1363.06 359.588 1363.29 358.884L1366.24 359.764C1365.83 360.849 1365.14 361.832 1364.17 362.712C1363.23 363.563 1362.12 364.237 1360.83 364.736C1359.57 365.205 1358.2 365.44 1356.74 365.44Z" fill="white"/>
<circle cx="338.5" cy="281" r="22" fill="white"/>
<g filter="url(#filter0_b_1085_2571)">
<circle cx="299.5" cy="281" r="47" fill="url(#paint0_linear_1085_2571)"/>
<circle cx="299.5" cy="281" r="46.3947" stroke="url(#paint1_linear_1085_2571)" stroke-width="1.21053"/>
</g>
<path d="M284.393 272.237V289.782C284.393 293.375 288.298 295.63 291.415 293.834L299.023 289.452L306.632 285.052C309.748 283.255 309.748 278.764 306.632 276.967L299.023 272.567L291.415 268.185C288.298 266.389 284.393 268.625 284.393 272.237Z" fill="white"/>
<path d="M314.607 293.705C313.855 293.705 313.232 293.082 313.232 292.33V269.67C313.232 268.918 313.855 268.295 314.607 268.295C315.358 268.295 315.982 268.918 315.982 269.67V292.33C315.982 293.082 315.377 293.705 314.607 293.705Z" fill="white"/>
<g filter="url(#filter1_d_1085_2571)">
<path d="M1199.94 33.6016C1201.9 31.6197 1205.1 31.6197 1207.06 33.6016L1210.06 36.6444C1211.67 38.2708 1214.17 38.6006 1216.15 37.4454L1219.84 35.2841C1222.24 33.8764 1225.33 34.7045 1226.71 37.1255L1228.82 40.8425C1229.96 42.8293 1232.29 43.7961 1234.49 43.1908L1238.62 42.0584C1241.3 41.3208 1244.08 42.9206 1244.78 45.6157L1245.86 49.7535C1246.44 51.9653 1248.44 53.5033 1250.73 53.4892L1255.01 53.4628C1257.79 53.4455 1260.05 55.708 1260.04 58.4936L1260.01 62.7703C1260 65.0563 1261.53 67.0607 1263.75 67.6387L1267.88 68.7201C1270.58 69.4244 1272.18 72.1954 1271.44 74.8815L1270.31 79.0056C1269.7 81.2101 1270.67 83.5443 1272.66 84.6751L1276.37 86.7905C1278.8 88.1684 1279.62 91.259 1278.22 93.6628L1276.05 97.3532C1274.9 99.3259 1275.23 101.831 1276.86 103.437L1279.9 106.443C1281.88 108.4 1281.88 111.6 1279.9 113.557L1276.86 116.563C1275.23 118.169 1274.9 120.674 1276.05 122.647L1278.22 126.337C1279.62 128.741 1278.8 131.832 1276.37 133.209L1272.66 135.325C1270.67 136.456 1269.7 138.79 1270.31 140.994L1271.44 145.118C1272.18 147.805 1270.58 150.576 1267.88 151.28L1263.75 152.361C1261.53 152.939 1260 154.944 1260.01 157.23L1260.04 161.506C1260.05 164.292 1257.79 166.554 1255.01 166.537L1250.73 166.511C1248.44 166.497 1246.44 168.035 1245.86 170.246L1244.78 174.384C1244.08 177.079 1241.3 178.679 1238.62 177.942L1234.49 176.809C1232.29 176.204 1229.96 177.171 1228.82 179.158L1226.71 182.874C1225.33 185.295 1222.24 186.124 1219.84 184.716L1216.15 182.555C1214.17 181.399 1211.67 181.729 1210.06 183.356L1207.06 186.398C1205.1 188.38 1201.9 188.38 1199.94 186.398L1196.94 183.356C1195.33 181.729 1192.83 181.399 1190.85 182.555L1187.16 184.716C1184.76 186.124 1181.67 185.295 1180.29 182.874L1178.18 179.158C1177.04 177.171 1174.71 176.204 1172.51 176.809L1168.38 177.942C1165.7 178.679 1162.92 177.079 1162.22 174.384L1161.14 170.246C1160.56 168.035 1158.56 166.497 1156.27 166.511L1151.99 166.537C1149.21 166.554 1146.95 164.292 1146.96 161.506L1146.99 157.23C1147 154.944 1145.47 152.939 1143.25 152.361L1139.12 151.28C1136.42 150.576 1134.82 147.805 1135.56 145.118L1136.69 140.994C1137.3 138.79 1136.33 136.456 1134.34 135.325L1130.63 133.209C1128.2 131.832 1127.38 128.741 1128.78 126.337L1130.95 122.647C1132.1 120.674 1131.77 118.169 1130.14 116.563L1127.1 113.557C1125.12 111.6 1125.12 108.4 1127.1 106.443L1130.14 103.437C1131.77 101.831 1132.1 99.3259 1130.95 97.3532L1128.78 93.6628C1127.38 91.259 1128.2 88.1684 1130.63 86.7905L1134.34 84.6751C1136.33 83.5443 1137.3 81.2101 1136.69 79.0056L1135.56 74.8815C1134.82 72.1954 1136.42 69.4244 1139.12 68.7201L1143.25 67.6387C1145.47 67.0607 1147 65.0563 1146.99 62.7703L1146.96 58.4936C1146.95 55.708 1149.21 53.4455 1151.99 53.4628L1156.27 53.4892C1158.56 53.5033 1160.56 51.9653 1161.14 49.7535L1162.22 45.6157C1162.92 42.9206 1165.7 41.3208 1168.38 42.0584L1172.51 43.1908C1174.71 43.7961 1177.04 42.8293 1178.18 40.8425L1180.29 37.1255C1181.67 34.7046 1184.76 33.8764 1187.16 35.2841L1190.85 37.4454C1192.83 38.6006 1195.33 38.2708 1196.94 36.6444L1199.94 33.6016Z" fill="white"/>
<path d="M1157.76 115.549L1156.24 115.995L1159.15 125.905L1145.05 130.051L1145.53 131.707L1161.16 127.115L1157.76 115.549Z" fill="white"/>
<path d="M1144.74 112.225L1142 112.398L1142.11 114.12L1144.85 113.947L1144.74 112.225ZM1158.25 111.37L1146.27 112.128L1146.38 113.85L1158.36 113.092L1158.25 111.37Z" fill="white"/>
<path d="M1157.48 102.761C1157.94 99.6839 1157.09 97.2971 1154.85 96.9646C1152.93 96.6785 1151.86 97.92 1151.12 100.415L1150.28 103.262C1149.7 105.191 1149.17 105.751 1147.95 105.569C1146.53 105.358 1146.08 104.235 1146.45 101.735C1146.9 98.706 1148 97.9115 1149.78 98.1761L1149.9 98.194L1150.16 96.4872L1150.11 96.4801C1147.32 96.0653 1145.55 98.0624 1145.04 101.476C1144.56 104.745 1145.58 106.937 1147.67 107.248C1149.64 107.541 1150.69 106.296 1151.3 104.176L1152.23 101.071C1152.83 99.1458 1153.35 98.4614 1154.6 98.6473C1155.97 98.8511 1156.46 99.8576 1156.07 102.526C1155.63 105.435 1154.76 106.509 1152.77 106.212L1152.62 106.191L1152.37 107.897L1152.42 107.905C1155.16 108.312 1156.94 106.415 1157.48 102.761Z" fill="white"/>
<path d="M1163.11 88.0229L1161.66 87.3964L1160.8 89.4043C1160.1 91.0107 1159.35 91.5861 1157.81 90.921L1151.56 88.2223L1153.45 83.8494L1152.09 83.2615L1150.2 87.6343L1147.57 86.497L1146.88 88.1033L1149.51 89.2407L1148.66 91.204L1150.02 91.7919L1150.87 89.8286L1157.03 92.4888C1159.61 93.6069 1161.14 92.5965 1162.08 90.4101L1163.11 88.0229Z" fill="white"/>
<path d="M1167.08 81.0348C1169.19 78.4264 1169.41 75.4138 1167.46 73.8402L1167.33 73.7333L1166.24 75.0753L1166.38 75.1822C1167.74 76.2822 1167.73 77.9598 1165.95 80.1523C1163.95 82.6284 1161.81 82.6822 1159.66 81.062L1166.3 72.8399C1166.1 72.5846 1165.85 72.3177 1165.51 72.0427C1162.73 69.7969 1159.57 70.4605 1157.35 73.2012C1154.92 76.2065 1155.42 79.7313 1158.25 82.0229C1161.22 84.4214 1164.65 84.0401 1167.08 81.0348ZM1158.45 74.1214C1160.22 71.9289 1162.27 71.5216 1164.24 73.1105C1164.33 73.1869 1164.43 73.2632 1164.52 73.3396L1158.82 80.3898C1156.86 78.6454 1156.5 76.5408 1158.45 74.1214Z" fill="white"/>
<path d="M1174.45 73.7669L1171.35 68.8516C1169.71 66.2397 1170.06 63.9225 1172.53 62.3686C1174.85 60.9053 1176.62 61.4842 1177.94 63.582L1181.54 69.2994L1183 68.38L1179.28 62.4569C1177.76 60.0507 1175.06 58.9081 1172.2 60.7081C1169.67 62.3008 1169.28 64.8731 1170.02 66.8208L1169.92 66.8856L1167.91 63.6978L1166.59 64.5266L1172.99 74.6863L1174.45 73.7669Z" fill="white"/>
<path d="M1193.5 69.6502L1192.7 62.0365L1192.73 62.034C1193.52 64.2717 1195.59 65.5213 1198.22 65.2444C1202.01 64.8455 1203.85 62.0383 1203.46 58.4127C1203.08 54.7872 1200.68 52.4245 1196.96 52.8157C1194.13 53.113 1192.5 54.7512 1192.19 56.9582L1192 56.9785L1191.65 53.6189L1190.1 53.7814L1191.79 69.8305L1193.5 69.6502ZM1192.47 59.7887L1192.44 59.5711C1192.13 56.6224 1193.7 54.7717 1196.67 54.4592C1199.38 54.1747 1201.36 55.1393 1201.72 58.5956C1202.09 62.052 1200.38 63.4294 1197.6 63.7215C1194.79 64.0162 1192.76 62.6166 1192.47 59.7887Z" fill="white"/>
<path d="M1212.2 66.3152C1216.02 67.2366 1219.16 65.317 1220.01 61.7727C1220.87 58.2284 1218.95 55.0916 1215.12 54.1702C1211.32 53.2545 1208.18 55.1741 1207.33 58.7184C1206.47 62.2627 1208.39 65.3995 1212.2 66.3152ZM1212.56 64.803C1209.35 64.0295 1208.3 61.952 1208.98 59.1166C1209.66 56.3048 1211.54 54.9089 1214.76 55.6824C1217.97 56.4559 1219.04 58.5627 1218.36 61.3745C1217.68 64.21 1215.77 65.5765 1212.56 64.803Z" fill="white"/>
<path d="M1220.36 73.474L1224.54 67.0585L1224.56 67.0717C1223.77 69.3116 1224.58 71.5812 1226.8 73.0266C1230 75.1086 1233.19 74.083 1235.18 71.028C1237.17 67.973 1236.8 64.6268 1233.66 62.5846C1231.28 61.0331 1228.97 61.2738 1227.35 62.7947L1227.18 62.6886L1229.03 59.8576L1227.72 59.0089L1218.92 72.5325L1220.36 73.474ZM1225.77 65.1644L1225.89 64.9811C1227.51 62.4963 1229.89 62.0458 1232.4 63.6769C1234.68 65.1621 1235.61 67.1608 1233.71 70.0732C1231.82 72.9857 1229.62 72.9758 1227.28 71.4508C1224.92 69.9126 1224.22 67.5473 1225.77 65.1644Z" fill="white"/>
<path d="M1236.98 81.2716C1238.79 83.6465 1241.38 83.8365 1243.26 82.9248L1243.33 83.0214L1240.36 85.2945L1241.3 86.5302L1250.84 79.2385L1249.79 77.8676L1245.16 81.4101C1242.71 83.2847 1240.37 83.1459 1238.58 80.8097C1236.9 78.6086 1237.3 76.7723 1239.29 75.252L1244.66 71.1486L1243.61 69.7777L1238.03 74.0435C1235.77 75.7705 1234.89 78.5493 1236.98 81.2716Z" fill="white"/>
<path d="M1242.82 91.3276L1257.68 84.6562L1256.97 83.0821L1242.12 89.7536L1242.82 91.3276Z" fill="white"/>
<path d="M1245.14 100.632C1245.8 103.92 1247.99 106.008 1250.44 105.512L1250.61 105.478L1250.26 103.787L1250.1 103.82C1248.38 104.167 1247.1 103.088 1246.54 100.325C1245.91 97.2039 1247.23 95.5235 1249.85 94.8937L1251.95 105.256C1252.27 105.265 1252.64 105.24 1253.07 105.154C1256.57 104.446 1258.08 101.588 1257.38 98.1336C1256.61 94.346 1253.58 92.4791 1250.01 93.2013C1246.27 93.9573 1244.37 96.8448 1245.14 100.632ZM1255.97 98.3939C1256.53 101.157 1255.53 102.994 1253.06 103.495C1252.94 103.519 1252.82 103.543 1252.7 103.567L1250.9 94.6818C1253.5 94.2809 1255.35 95.3447 1255.97 98.3939Z" fill="white"/>
<path d="M1246.3 110.869L1252.78 111.52C1255.46 111.79 1256.88 113.007 1256.64 115.425C1256.43 117.505 1255.35 118.251 1253.32 118.047L1252.4 117.955L1252.23 119.672L1253.41 119.791C1255.64 120.014 1257.79 119.009 1258.07 116.253C1258.32 113.762 1256.86 112.247 1254.98 111.693L1255 111.572L1258.26 111.9L1258.42 110.352L1246.47 109.152L1246.3 110.869Z" fill="white"/>
<circle cx="1211.35" cy="162.115" r="3.5" transform="rotate(-6 1211.35 162.115)" fill="white"/>
</g>
<circle cx="1202.5" cy="110" r="33" fill="black"/>
<path d="M1195.5 104.078L1195.5 115.604C1195.5 117.964 1198.01 119.446 1200.02 118.265L1204.91 115.387L1209.81 112.496C1211.82 111.316 1211.82 108.365 1209.81 107.185L1204.91 104.295L1200.02 101.416C1198.01 100.236 1195.5 101.705 1195.5 104.078Z" fill="white"/>
<path d="M75.04 164.28V172.5H11.7996V78.3686H73.8468V86.5885H21.0801V120.529H67.0852V128.351H21.0801V164.28H75.04ZM91.4359 78.3686L122.194 119.336L152.82 78.3686H163.294L127.232 126.097L162.233 172.5H151.76L122.194 132.859L92.4966 172.5H81.8902L116.891 126.097L80.8296 78.3686H91.4359ZM175.111 172.5V78.3686H214.089C218.155 78.3686 221.867 79.2083 225.226 80.8876C228.673 82.5669 231.634 84.865 234.109 87.7817C236.583 90.6101 238.528 93.792 239.942 97.3275C241.356 100.775 242.063 104.31 242.063 107.934C242.063 113.06 240.914 117.921 238.616 122.518C236.407 127.025 233.269 130.693 229.203 133.522C225.137 136.35 220.365 137.764 214.885 137.764H184.391V172.5H175.111ZM184.391 129.544H214.487C218.199 129.544 221.425 128.528 224.165 126.495C226.905 124.462 229.026 121.81 230.529 118.54C232.032 115.27 232.783 111.734 232.783 107.934C232.783 104.045 231.899 100.465 230.131 97.1949C228.364 93.9246 226.021 91.3614 223.105 89.5053C220.276 87.5608 217.139 86.5885 213.691 86.5885H184.391V129.544ZM256.961 172.5V78.3686H296.734C300.8 78.3686 304.512 79.2083 307.871 80.8876C311.23 82.5669 314.147 84.865 316.621 87.7817C319.185 90.6101 321.129 93.792 322.455 97.3275C323.869 100.775 324.576 104.31 324.576 107.934C324.576 112.442 323.692 116.684 321.925 120.661C320.245 124.639 317.815 127.997 314.633 130.737C311.539 133.477 307.871 135.289 303.629 136.173L326.697 172.5H316.224L294.083 137.764H266.241V172.5H256.961ZM266.241 129.544H297C300.712 129.544 303.938 128.528 306.678 126.495C309.418 124.462 311.539 121.81 313.042 118.54C314.544 115.181 315.296 111.646 315.296 107.934C315.296 104.133 314.412 100.642 312.644 97.46C310.965 94.1897 308.667 91.5823 305.75 89.6379C302.922 87.605 299.74 86.5885 296.204 86.5885H266.241V129.544ZM406.194 164.28V172.5H342.954V78.3686H405.001V86.5885H352.234V120.529H398.239V128.351H352.234V164.28H406.194ZM477.623 96.0017C476.297 94.4991 474.75 93.1733 472.983 92.0243C471.215 90.7869 469.226 89.7262 467.016 88.8424C464.807 87.9585 462.42 87.2514 459.857 86.7211C457.382 86.1908 454.731 85.9256 451.902 85.9256C443.682 85.9256 437.628 87.5166 433.739 90.6985C429.938 93.792 428.038 98.0345 428.038 103.426C428.038 107.138 428.922 110.055 430.69 112.176C432.546 114.298 435.418 116.021 439.307 117.347C443.196 118.673 448.146 120.043 454.156 121.457C460.874 122.871 466.663 124.55 471.524 126.495C476.385 128.439 480.142 131.091 482.793 134.45C485.445 137.72 486.771 142.184 486.771 147.84C486.771 152.171 485.931 155.928 484.252 159.109C482.572 162.291 480.23 164.943 477.225 167.064C474.22 169.186 470.64 170.776 466.486 171.837C462.332 172.809 457.78 173.295 452.83 173.295C447.969 173.295 443.285 172.809 438.777 171.837C434.358 170.776 430.159 169.274 426.182 167.329C422.205 165.297 418.492 162.733 415.045 159.64L419.686 152.083C421.365 153.85 423.354 155.53 425.652 157.121C428.038 158.623 430.646 159.993 433.474 161.231C436.391 162.468 439.484 163.44 442.754 164.147C446.113 164.766 449.56 165.076 453.096 165.076C460.608 165.076 466.442 163.706 470.596 160.966C474.839 158.226 476.96 154.16 476.96 148.768C476.96 144.879 475.899 141.786 473.778 139.488C471.657 137.101 468.475 135.157 464.232 133.654C459.99 132.152 454.775 130.693 448.588 129.279C442.047 127.777 436.523 126.097 432.016 124.241C427.508 122.385 424.105 119.954 421.807 116.949C419.597 113.856 418.492 109.79 418.492 104.752C418.492 98.9184 419.907 94.013 422.735 90.0356C425.652 85.9698 429.629 82.9205 434.667 80.8876C439.705 78.7663 445.494 77.7057 452.035 77.7057C456.189 77.7057 460.034 78.1476 463.569 79.0315C467.193 79.827 470.508 81.0202 473.513 82.6111C476.606 84.2021 479.479 86.1908 482.131 88.5772L477.623 96.0017ZM557.531 96.0017C556.205 94.4991 554.658 93.1733 552.89 92.0243C551.123 90.7869 549.134 89.7262 546.924 88.8424C544.715 87.9585 542.328 87.2514 539.765 86.7211C537.29 86.1908 534.639 85.9256 531.81 85.9256C523.59 85.9256 517.536 87.5166 513.647 90.6985C509.846 93.792 507.946 98.0345 507.946 103.426C507.946 107.138 508.83 110.055 510.597 112.176C512.454 114.298 515.326 116.021 519.215 117.347C523.104 118.673 528.054 120.043 534.064 121.457C540.781 122.871 546.571 124.55 551.432 126.495C556.293 128.439 560.05 131.091 562.701 134.45C565.353 137.72 566.679 142.184 566.679 147.84C566.679 152.171 565.839 155.928 564.16 159.109C562.48 162.291 560.138 164.943 557.133 167.064C554.128 169.186 550.548 170.776 546.394 171.837C542.24 172.809 537.688 173.295 532.738 173.295C527.877 173.295 523.193 172.809 518.685 171.837C514.265 170.776 510.067 169.274 506.09 167.329C502.112 165.297 498.4 162.733 494.953 159.64L499.593 152.083C501.273 153.85 503.261 155.53 505.559 157.121C507.946 158.623 510.553 159.993 513.382 161.231C516.298 162.468 519.392 163.44 522.662 164.147C526.021 164.766 529.468 165.076 533.003 165.076C540.516 165.076 546.35 163.706 550.504 160.966C554.746 158.226 556.868 154.16 556.868 148.768C556.868 144.879 555.807 141.786 553.686 139.488C551.565 137.101 548.383 135.157 544.14 133.654C539.898 132.152 534.683 130.693 528.496 129.279C521.955 127.777 516.431 126.097 511.923 124.241C507.416 122.385 504.013 119.954 501.715 116.949C499.505 113.856 498.4 109.79 498.4 104.752C498.4 98.9184 499.814 94.013 502.643 90.0356C505.559 85.9698 509.537 82.9205 514.575 80.8876C519.613 78.7663 525.402 77.7057 531.943 77.7057C536.097 77.7057 539.942 78.1476 543.477 79.0315C547.101 79.827 550.415 81.0202 553.421 82.6111C556.514 84.2021 559.387 86.1908 562.038 88.5772L557.531 96.0017Z" fill="white"/>
<path d="M559.917 237.869L583.119 282.15L606.718 237.869H626.472L592.267 299.12V332H574.103V298.855L540.03 237.869H559.917ZM670.297 332.663C663.402 332.663 657.127 331.337 651.47 328.686C645.902 326.034 641.085 322.454 637.019 317.947C633.042 313.35 629.948 308.224 627.739 302.567C625.529 296.822 624.424 290.945 624.424 284.934C624.424 278.659 625.573 272.693 627.871 267.036C630.258 261.291 633.484 256.209 637.549 251.789C641.704 247.282 646.565 243.746 652.133 241.183C657.79 238.531 663.977 237.206 670.694 237.206C677.5 237.206 683.687 238.576 689.255 241.316C694.912 244.056 699.729 247.724 703.707 252.32C707.684 256.916 710.777 262.042 712.987 267.699C715.197 273.356 716.302 279.189 716.302 285.199C716.302 291.386 715.153 297.353 712.855 303.098C710.556 308.754 707.33 313.837 703.176 318.344C699.11 322.764 694.249 326.255 688.592 328.818C683.024 331.381 676.925 332.663 670.297 332.663ZM642.985 284.934C642.985 289 643.604 292.933 644.841 296.734C646.079 300.534 647.846 303.937 650.144 306.942C652.531 309.859 655.403 312.201 658.762 313.969C662.209 315.649 666.098 316.488 670.429 316.488C674.848 316.488 678.782 315.604 682.229 313.837C685.676 311.981 688.548 309.55 690.846 306.545C693.144 303.451 694.868 300.048 696.017 296.336C697.254 292.536 697.873 288.735 697.873 284.934C697.873 280.869 697.21 276.98 695.884 273.267C694.647 269.467 692.835 266.108 690.449 263.191C688.151 260.186 685.278 257.844 681.831 256.165C678.472 254.397 674.672 253.513 670.429 253.513C665.921 253.513 661.944 254.441 658.497 256.297C655.138 258.065 652.31 260.451 650.012 263.456C647.714 266.462 645.946 269.82 644.709 273.532C643.56 277.245 642.985 281.045 642.985 284.934ZM769.619 332.663C762.106 332.663 755.698 331.425 750.395 328.951C745.18 326.387 740.938 322.896 737.667 318.477C734.485 314.058 732.143 309.064 730.641 303.495C729.138 297.839 728.387 291.961 728.387 285.862V237.869H746.683V285.862C746.683 289.751 747.036 293.552 747.743 297.264C748.539 300.888 749.82 304.158 751.588 307.075C753.356 309.992 755.698 312.29 758.615 313.969C761.532 315.649 765.155 316.488 769.486 316.488C773.906 316.488 777.574 315.649 780.49 313.969C783.496 312.201 785.838 309.859 787.517 306.942C789.285 304.026 790.566 300.755 791.362 297.132C792.157 293.419 792.555 289.663 792.555 285.862V237.869H810.718V285.862C810.718 292.315 809.923 298.369 808.332 304.026C806.829 309.682 804.399 314.676 801.04 319.007C797.77 323.25 793.527 326.608 788.313 329.083C783.098 331.47 776.867 332.663 769.619 332.663ZM828.523 332V237.869H870.153C874.484 237.869 878.461 238.752 882.085 240.52C885.797 242.288 888.979 244.674 891.631 247.679C894.371 250.685 896.448 254.043 897.862 257.756C899.365 261.468 900.116 265.268 900.116 269.157C900.116 273.135 899.409 276.98 897.995 280.692C896.669 284.316 894.724 287.497 892.161 290.237C889.598 292.977 886.593 295.099 883.146 296.601L904.624 332H884.472L865.115 300.446H846.819V332H828.523ZM846.819 284.404H869.755C872.053 284.404 874.086 283.741 875.854 282.415C877.622 281.001 879.036 279.145 880.097 276.847C881.157 274.549 881.687 271.986 881.687 269.157C881.687 266.152 881.069 263.545 879.831 261.335C878.594 259.037 877.003 257.225 875.059 255.899C873.202 254.574 871.17 253.911 868.96 253.911H846.819V284.404ZM972.151 262.528C971.532 261.91 970.383 261.07 968.704 260.009C967.113 258.949 965.124 257.932 962.738 256.96C960.44 255.988 957.921 255.148 955.181 254.441C952.441 253.646 949.656 253.248 946.828 253.248C941.878 253.248 938.122 254.176 935.559 256.032C933.084 257.888 931.847 260.495 931.847 263.854C931.847 266.417 932.642 268.45 934.233 269.953C935.824 271.455 938.21 272.737 941.392 273.798C944.574 274.858 948.552 276.007 953.325 277.245C959.512 278.747 964.859 280.603 969.367 282.813C973.963 284.934 977.454 287.763 979.84 291.298C982.315 294.745 983.553 299.341 983.553 305.086C983.553 310.124 982.625 314.455 980.768 318.079C978.912 321.615 976.349 324.487 973.079 326.697C969.809 328.906 966.096 330.542 961.942 331.602C957.788 332.575 953.369 333.061 948.684 333.061C944 333.061 939.315 332.575 934.631 331.602C929.946 330.63 925.439 329.26 921.108 327.492C916.777 325.636 912.799 323.427 909.176 320.863L917.263 305.086C918.058 305.882 919.473 306.942 921.505 308.268C923.538 309.506 926.013 310.787 928.93 312.113C931.847 313.35 935.029 314.411 938.476 315.295C941.923 316.179 945.414 316.621 948.949 316.621C953.899 316.621 957.655 315.781 960.219 314.102C962.782 312.422 964.063 310.036 964.063 306.942C964.063 304.114 963.047 301.904 961.014 300.314C958.981 298.723 956.153 297.353 952.529 296.204C948.905 294.966 944.618 293.64 939.669 292.226C933.747 290.547 928.797 288.691 924.82 286.658C920.843 284.537 917.882 281.885 915.937 278.703C913.993 275.521 913.02 271.544 913.02 266.771C913.02 260.319 914.523 254.927 917.528 250.596C920.622 246.177 924.776 242.862 929.991 240.653C935.205 238.355 940.995 237.206 947.358 237.206C951.778 237.206 955.932 237.692 959.821 238.664C963.798 239.636 967.511 240.918 970.958 242.509C974.405 244.1 977.498 245.823 980.238 247.679L972.151 262.528ZM1062.12 315.958V332H996.754V237.869H1060.92V253.911H1015.05V276.582H1054.69V291.431H1015.05V315.958H1062.12ZM1075.76 332V237.869H1094.05V315.958H1142.05V332H1075.76ZM1152.56 332V237.869H1215.8V253.911H1170.85V278.173H1208.24V293.022H1170.85V332H1152.56Z" fill="url(#paint2_linear_1085_2571)"/>
<defs>
<filter id="filter0_b_1085_2571" x="228.289" y="209.789" width="142.421" height="142.421" filterUnits="userSpaceOnUse" color-interpolation-filters="sRGB">
<feFlood flood-opacity="0" result="BackgroundImageFix"/>
<feGaussianBlur in="BackgroundImageFix" stdDeviation="12.1053"/>
<feComposite in2="SourceAlpha" operator="in" result="effect1_backgroundBlur_1085_2571"/>
<feBlend mode="normal" in="SourceGraphic" in2="effect1_backgroundBlur_1085_2571" result="shape"/>
</filter>
<filter id="filter1_d_1085_2571" x="1089.62" y="0.115234" width="227.77" height="227.77" filterUnits="userSpaceOnUse" color-interpolation-filters="sRGB">
<feFlood flood-opacity="0" result="BackgroundImageFix"/>
<feColorMatrix in="SourceAlpha" type="matrix" values="0 0 0 0 0 0 0 0 0 0 0 0 0 0 0 0 0 0 127 0" result="hardAlpha"/>
<feOffset dy="4"/>
<feGaussianBlur stdDeviation="18"/>
<feComposite in2="hardAlpha" operator="out"/>
<feColorMatrix type="matrix" values="0 0 0 0 0 0 0 0 0 0 0 0 0 0 0 0 0 0 0.15 0"/>
<feBlend mode="normal" in2="BackgroundImageFix" result="effect1_dropShadow_1085_2571"/>
<feBlend mode="normal" in="SourceGraphic" in2="effect1_dropShadow_1085_2571" result="shape"/>
</filter>
<linearGradient id="paint0_linear_1085_2571" x1="269.071" y1="246.955" x2="322.096" y2="322.577" gradientUnits="userSpaceOnUse">
<stop stop-color="#F5F5F5" stop-opacity="0.2"/>
<stop offset="1" stop-color="#D9D9D9" stop-opacity="0.1"/>
</linearGradient>
<linearGradient id="paint1_linear_1085_2571" x1="322.699" y1="322.878" x2="275.096" y2="240.327" gradientUnits="userSpaceOnUse">
<stop stop-color="white"/>
<stop offset="1" stop-color="#BCBCBC" stop-opacity="0.5"/>
</linearGradient>
<linearGradient id="paint2_linear_1085_2571" x1="539.5" y1="255.92" x2="1219.5" y2="255.92" gradientUnits="userSpaceOnUse">
<stop offset="0.0001" stop-color="#57FBFB"/>
<stop offset="1" stop-color="#02B7B7"/>
</linearGradient>
</defs>
</svg>
