<svg width="243" height="72" viewBox="0 0 243 72" fill="none" xmlns="http://www.w3.org/2000/svg">
<rect width="243" height="72" rx="12" fill="#121212"/>
<path d="M192.482 54H195.841V31.4971H192.482V54ZM222.735 39.6036L218.885 49.3594H218.77L214.774 39.6036H211.156L217.15 53.2386L213.731 60.8238H217.234L226.47 39.6036H222.735ZM203.686 51.4442C202.588 51.4442 201.052 50.8936 201.052 49.5331C201.052 47.7963 202.964 47.1305 204.613 47.1305C206.089 47.1305 206.785 47.4484 207.682 47.8829C207.421 49.9676 205.626 51.4442 203.686 51.4442ZM204.092 39.1113C201.661 39.1113 199.142 40.1828 198.1 42.5567L201.081 43.8012C201.718 42.5567 202.904 42.1517 204.15 42.1517C205.887 42.1517 207.653 43.193 207.682 45.0464V45.2777C207.073 44.9303 205.77 44.4094 204.179 44.4094C200.964 44.4094 197.693 46.1749 197.693 49.4753C197.693 52.4862 200.329 54.4261 203.281 54.4261C205.538 54.4261 206.785 53.4128 207.565 52.2254H207.682V53.9635H210.925V45.3353C210.925 41.3402 207.941 39.1113 204.092 39.1113ZM183.335 42.3428H178.558V34.6297H183.335C185.846 34.6297 187.271 36.7081 187.271 38.4862C187.271 40.23 185.846 42.3428 183.335 42.3428ZM183.248 31.4971H175.2V54H178.558V45.4747H183.248C186.971 45.4747 190.63 42.7802 190.63 38.4862C190.63 34.193 186.971 31.4971 183.248 31.4971ZM139.362 51.4483C137.041 51.4483 135.099 49.5049 135.099 46.838C135.099 44.1401 137.041 42.1691 139.362 42.1691C141.653 42.1691 143.451 44.1401 143.451 46.838C143.451 49.5049 141.653 51.4483 139.362 51.4483ZM143.219 40.8636H143.102C142.349 39.9649 140.898 39.1529 139.072 39.1529C135.244 39.1529 131.735 42.5173 131.735 46.838C131.735 51.1292 135.244 54.464 139.072 54.464C140.898 54.464 142.349 53.6519 143.102 52.7245H143.219V53.8256C143.219 56.7555 141.653 58.3207 139.13 58.3207C137.072 58.3207 135.796 56.842 135.273 55.5954L132.345 56.8132C133.185 58.8424 135.417 61.3371 139.13 61.3371C143.074 61.3371 146.409 59.0168 146.409 53.3615V39.6169H143.219V40.8636ZM148.73 54H152.092V31.4971H148.73V54ZM157.051 46.5764C156.965 43.6183 159.343 42.1108 161.053 42.1108C162.388 42.1108 163.518 42.7781 163.896 43.7344L157.051 46.5764ZM167.49 44.024C166.853 42.314 164.91 39.1529 160.937 39.1529C156.993 39.1529 153.716 42.2557 153.716 46.8085C153.716 51.1004 156.965 54.464 161.313 54.464C164.822 54.464 166.853 52.3188 167.694 51.0714L165.084 49.3312C164.214 50.6074 163.026 51.4483 161.313 51.4483C159.603 51.4483 158.385 50.6651 157.603 49.1281L167.838 44.8945L167.49 44.024ZM85.9364 41.5019V44.7496H93.7079C93.4759 46.5764 92.8669 47.9102 91.9389 48.8383C90.8076 49.9689 89.0385 51.2163 85.9364 51.2163C81.1514 51.2163 77.4109 47.3596 77.4109 42.5749C77.4109 37.7901 81.1514 33.9329 85.9364 33.9329C88.5174 33.9329 90.4018 34.9481 91.794 36.2531L94.0855 33.9617C92.1421 32.1061 89.5616 30.6851 85.9364 30.6851C79.3817 30.6851 73.8721 36.021 73.8721 42.5749C73.8721 49.1281 79.3817 54.464 85.9364 54.464C89.4737 54.464 92.1421 53.3039 94.2297 51.1292C96.3757 48.9832 97.0429 45.9675 97.0429 43.5312C97.0429 42.7781 96.9844 42.082 96.8685 41.5019H85.9364ZM105.878 51.4483C103.558 51.4483 101.557 49.5344 101.557 46.8085C101.557 44.0536 103.558 42.1691 105.878 42.1691C108.198 42.1691 110.199 44.0536 110.199 46.8085C110.199 49.5344 108.198 51.4483 105.878 51.4483ZM105.878 39.1529C101.643 39.1529 98.1931 42.3716 98.1931 46.8085C98.1931 51.2163 101.643 54.464 105.878 54.464C110.112 54.464 113.563 51.2163 113.563 46.8085C113.563 42.3716 110.112 39.1529 105.878 39.1529ZM122.641 51.4483C120.323 51.4483 118.321 49.5344 118.321 46.8085C118.321 44.0536 120.323 42.1691 122.641 42.1691C124.962 42.1691 126.962 44.0536 126.962 46.8085C126.962 49.5344 124.962 51.4483 122.641 51.4483ZM122.641 39.1529C118.408 39.1529 114.958 42.3716 114.958 46.8085C114.958 51.2163 118.408 54.464 122.641 54.464C126.876 54.464 130.327 51.2163 130.327 46.8085C130.327 42.3716 126.876 39.1529 122.641 39.1529Z" fill="white"/>
<path d="M80.0588 23.8219C78.445 23.8219 77.0569 23.2541 75.9378 22.1351C74.8181 21.0154 74.251 19.6134 74.251 17.9831C74.251 16.3529 74.8183 14.9534 75.9378 13.8312C77.0569 12.712 78.445 12.1444 80.0588 12.1444C80.8809 12.1444 81.6483 12.2864 82.3816 12.5821C83.1151 12.8778 83.7153 13.2883 84.1879 13.8256L84.2993 13.9525L83.0404 15.2111L82.9145 15.0564C82.6011 14.6713 82.2025 14.3721 81.6974 14.1546C81.1942 13.9377 80.6429 13.8375 80.0588 13.8375C78.9221 13.8375 77.979 14.2235 77.1914 15.0082C77.1913 15.0084 77.1909 15.0084 77.1907 15.0086C76.4211 15.8091 76.0341 16.7838 76.0341 17.9831C76.0341 19.1834 76.4215 20.1583 77.1921 20.9591C77.9797 21.7435 78.9227 22.1316 80.0588 22.1316C81.0993 22.1316 81.9598 21.8411 82.6364 21.266H82.6368C83.2666 20.7308 83.6446 20.0076 83.7783 19.0856H79.8788V17.4263H85.4637L85.4876 17.5781C85.5334 17.8698 85.5657 18.1514 85.5657 18.4219C85.5657 19.9702 85.0936 21.2341 84.1675 22.1639C83.122 23.2722 81.7471 23.8219 80.0588 23.8219L80.0588 23.8219ZM128.554 23.8219C126.938 23.8219 125.566 23.2538 124.461 22.1351C124.461 22.135 124.461 22.1349 124.461 22.1347C124.461 22.1346 124.461 22.1346 124.46 22.1344C123.354 21.0277 122.805 19.6254 122.805 17.9831C122.805 16.3408 123.354 14.9385 124.46 13.8319C124.461 13.8318 124.461 13.8317 124.461 13.8315L124.461 13.8312C125.566 12.7123 126.938 12.1444 128.554 12.1444C130.167 12.1444 131.539 12.7124 132.644 13.848C133.751 14.9545 134.3 16.3541 134.3 17.9831C134.3 19.6254 133.751 21.0277 132.645 22.1344L132.644 22.1347C131.539 23.2542 130.154 23.8219 128.554 23.8219L128.554 23.8219ZM87.1639 23.58V12.3863H87.3439H93.8492V14.0794H88.9161V17.1535H93.3654V18.8128H88.9161V21.8897H93.8492V23.58H87.1639ZM97.9407 23.58V14.0794H94.9144V12.3863H102.719V14.0794H102.539H99.6929V23.58H97.9407ZM107.707 23.58V12.3863H109.459V12.5663V23.58H107.707ZM113.87 23.58V14.0794H110.844V12.3863H118.648V14.0794H118.468H115.622V23.58H113.87ZM135.855 23.58V12.3863H137.831L142.859 20.4363L142.816 18.9081V12.3863H144.568V23.58H142.834L137.564 15.1232L137.607 16.6504V16.6528V23.58H135.855ZM128.554 22.1316C129.691 22.1316 130.619 21.7439 131.375 20.9605L131.376 20.9591L131.377 20.958C132.144 20.1907 132.52 19.2028 132.52 17.9831C132.52 16.7663 132.144 15.7752 131.377 15.0082L131.376 15.0071L131.375 15.006C130.619 14.2228 129.691 13.8374 128.554 13.8374C127.415 13.8374 126.487 14.2221 125.717 15.0053L125.716 15.006C124.963 15.7916 124.588 16.7667 124.588 17.983C124.588 19.2024 124.963 20.1743 125.716 20.9601L125.717 20.9608C126.488 21.7441 127.415 22.1315 128.554 22.1315V22.1316Z" fill="white"/>
<path d="M37.2863 34.9618L18.1226 55.3018C18.1233 55.306 18.1247 55.3096 18.1254 55.3138C18.7131 57.5223 20.7304 59.1486 23.1246 59.1486C24.0816 59.1486 24.9802 58.8899 25.7508 58.4356L25.812 58.3998L47.3832 45.9524L37.2863 34.9618Z" fill="#EA4335"/>
<path d="M56.6742 31.4983L56.6558 31.4857L47.343 26.087L36.851 35.4232L47.3795 45.9503L56.6432 40.6052C58.2674 39.7284 59.3699 38.0163 59.3699 36.0419C59.3699 34.0817 58.2821 32.378 56.6742 31.4983Z" fill="#FBBC04"/>
<path d="M18.1218 16.6974C18.0066 17.1222 17.946 17.5672 17.946 18.0292V53.9709C17.946 54.4321 18.0059 54.8786 18.1225 55.3019L37.9457 35.4822L18.1218 16.6974Z" fill="#4285F4"/>
<path d="M37.4275 35.9998L47.3466 26.0836L25.7999 13.5912C25.0167 13.1221 24.1027 12.8514 23.1246 12.8514C20.7304 12.8514 18.7104 14.4806 18.1225 16.6919C18.1218 16.694 18.1218 16.6955 18.1218 16.6975L37.4275 35.9998Z" fill="#34A853"/>
<rect width="243" height="72" rx="12" stroke="#A6A6A6"/>
</svg>
