<svg width="41" height="40" viewBox="0 0 41 40" fill="none" xmlns="http://www.w3.org/2000/svg">
<g clip-path="url(#clip0_537_8600)">
<path d="M11.1403 28.3328C8.66455 27.7895 6.59911 26.1008 5.63472 23.7954C5.69141 23.8021 5.74812 23.8081 5.80484 23.8137L6.4047 21.954C4.22527 20.686 2.76952 18.429 2.6082 15.9028C2.87768 16.0263 3.15357 16.1357 3.43437 16.2305L6.94027 17.4152L4.50819 14.626C3.32615 13.2703 2.65978 11.5395 2.65978 9.7171C2.65978 8.53609 2.94265 7.37256 3.48147 6.32468C7.48714 10.9198 13.1939 13.7935 19.3165 14.318L20.5547 14.424L20.3933 13.1918C20.3511 12.8693 20.3297 12.5419 20.3297 12.2122C20.3297 8.05293 23.807 4.62549 28.1314 4.62549C30.1763 4.62549 32.1525 5.41685 33.6021 6.79871L33.985 7.16375L34.5022 7.05258C35.9193 6.74798 37.2831 6.26577 38.5707 5.61439C38.2552 6.27709 37.8426 6.89099 37.3465 7.43832L35.0086 10.0179L38.3591 9.07228C38.6891 8.97914 39.016 8.87608 39.3393 8.76316C38.4755 9.83838 37.4773 10.7943 36.3581 11.6169L35.9344 11.9283L35.9508 12.4539C35.9579 12.6806 35.9615 12.9082 35.9615 13.1334C35.9615 18.5173 33.8243 23.9884 30.0885 28.1232L30.0885 28.1232C27.1046 31.426 21.7517 35.3746 13.1391 35.3746C9.2799 35.3746 5.51231 34.4263 2.15168 32.6213C2.30208 32.6252 2.45247 32.6272 2.60264 32.6272C5.77134 32.6272 8.7986 31.7814 11.4473 30.1629L13.5697 28.866L11.1403 28.3328ZM40.0621 7.7898C40.0625 7.78925 40.0628 7.7887 40.0632 7.78815L40.0631 7.78824C40.0628 7.78876 40.0624 7.78928 40.0621 7.7898ZM0.834087 31.8565C0.834283 31.8566 0.834479 31.8567 0.834675 31.8568C0.834515 31.8567 0.834355 31.8566 0.834195 31.8565L0.834087 31.8565ZM0.623266 32.5139L0.623794 32.514L0.623266 32.5139Z" stroke="#D9D9D9" stroke-width="2"/>
</g>
<defs>
<clipPath id="clip0_537_8600">
<rect width="41" height="40" fill="white"/>
</clipPath>
</defs>
</svg>
