<svg width="370" height="73" viewBox="0 0 370 73" fill="none" xmlns="http://www.w3.org/2000/svg">
<rect width="370" height="73" rx="8" fill="white"/>
<path d="M44.45 46.208C43.982 46.208 43.6007 46.0953 43.306 45.87C43.0287 45.6447 42.8033 45.2893 42.63 44.804L37.196 29.438C37.0053 28.8833 37.04 28.4153 37.3 28.034C37.5773 27.6527 38.0367 27.462 38.678 27.462C39.146 27.462 39.51 27.5747 39.77 27.8C40.03 28.008 40.238 28.346 40.394 28.814L45.074 42.698H44.034L48.922 28.84C49.0953 28.372 49.312 28.0253 49.572 27.8C49.832 27.5747 50.17 27.462 50.586 27.462C51.002 27.462 51.3313 27.5747 51.574 27.8C51.8167 28.0253 52.0247 28.3807 52.198 28.866L56.93 42.698H56.02L60.778 28.814C60.934 28.3633 61.142 28.0253 61.402 27.8C61.662 27.5747 62.0173 27.462 62.468 27.462C63.0227 27.462 63.43 27.6527 63.69 28.034C63.95 28.4153 63.9847 28.8833 63.794 29.438L58.308 44.83C58.1347 45.298 57.9093 45.6447 57.632 45.87C57.3547 46.0953 56.982 46.208 56.514 46.208C56.046 46.208 55.6733 46.0953 55.396 45.87C55.1187 45.6447 54.8933 45.2893 54.72 44.804L50.196 31.908H50.794L46.218 44.83C46.0447 45.298 45.8193 45.6447 45.542 45.87C45.282 46.0953 44.918 46.208 44.45 46.208ZM71.2763 46.26C69.8376 46.26 68.5983 45.9913 67.5583 45.454C66.5183 44.9167 65.7123 44.154 65.1403 43.166C64.5856 42.178 64.3083 41.008 64.3083 39.656C64.3083 38.3387 64.577 37.186 65.1143 36.198C65.669 35.21 66.423 34.4387 67.3763 33.884C68.347 33.312 69.4476 33.026 70.6783 33.026C71.5796 33.026 72.3856 33.1733 73.0963 33.468C73.8243 33.7627 74.4396 34.1873 74.9423 34.742C75.4623 35.2967 75.8523 35.9727 76.1123 36.77C76.3896 37.55 76.5283 38.434 76.5283 39.422C76.5283 39.734 76.4156 39.9767 76.1903 40.15C75.9823 40.306 75.679 40.384 75.2803 40.384H66.9343V38.512H74.2403L73.8243 38.902C73.8243 38.1047 73.703 37.4373 73.4603 36.9C73.235 36.3627 72.897 35.9553 72.4463 35.678C72.013 35.3833 71.467 35.236 70.8083 35.236C70.0803 35.236 69.4563 35.4093 68.9363 35.756C68.4336 36.0853 68.0436 36.562 67.7663 37.186C67.5063 37.7927 67.3763 38.5207 67.3763 39.37V39.552C67.3763 40.9733 67.7056 42.0393 68.3643 42.75C69.0403 43.4433 70.0283 43.79 71.3283 43.79C71.779 43.79 72.2816 43.738 72.8363 43.634C73.4083 43.5127 73.9456 43.3133 74.4483 43.036C74.8123 42.828 75.133 42.7413 75.4103 42.776C75.6876 42.7933 75.9043 42.8887 76.0603 43.062C76.2336 43.2353 76.3376 43.452 76.3723 43.712C76.407 43.9547 76.355 44.206 76.2163 44.466C76.095 44.726 75.8783 44.9513 75.5663 45.142C74.9596 45.5233 74.2576 45.8093 73.4603 46C72.6803 46.1733 71.9523 46.26 71.2763 46.26ZM86.4341 46.26C85.3594 46.26 84.4148 45.9913 83.6001 45.454C82.8028 44.9167 82.2741 44.1973 82.0141 43.296L82.3001 42.646V44.544C82.3001 45.0813 82.1614 45.4973 81.8841 45.792C81.6068 46.0693 81.2168 46.208 80.7141 46.208C80.1941 46.208 79.7954 46.0693 79.5181 45.792C79.2408 45.4973 79.1021 45.0813 79.1021 44.544V29.1C79.1021 28.5627 79.2408 28.1553 79.5181 27.878C79.7954 27.6007 80.1941 27.462 80.7141 27.462C81.2341 27.462 81.6328 27.6007 81.9101 27.878C82.2048 28.1553 82.3521 28.5627 82.3521 29.1V35.86H82.0401C82.3174 35.0107 82.8548 34.326 83.6521 33.806C84.4494 33.286 85.3768 33.026 86.4341 33.026C87.5608 33.026 88.5401 33.2947 89.3721 33.832C90.2041 34.3693 90.8541 35.132 91.3221 36.12C91.7901 37.0907 92.0241 38.2607 92.0241 39.63C92.0241 40.982 91.7901 42.1607 91.3221 43.166C90.8541 44.154 90.1954 44.9167 89.3461 45.454C88.5141 45.9913 87.5434 46.26 86.4341 46.26ZM85.5241 43.79C86.1654 43.79 86.7288 43.634 87.2141 43.322C87.6994 43.01 88.0721 42.5507 88.3321 41.944C88.6094 41.32 88.7481 40.5487 88.7481 39.63C88.7481 38.2433 88.4534 37.212 87.8641 36.536C87.2748 35.8427 86.4948 35.496 85.5241 35.496C84.8828 35.496 84.3194 35.652 83.8341 35.964C83.3488 36.2587 82.9674 36.718 82.6901 37.342C82.4301 37.9487 82.3001 38.7113 82.3001 39.63C82.3001 40.9993 82.5948 42.0393 83.1841 42.75C83.7734 43.4433 84.5534 43.79 85.5241 43.79ZM105.937 46.26C105.018 46.26 104.195 46.0867 103.467 45.74C102.756 45.376 102.193 44.8907 101.777 44.284C101.378 43.6773 101.179 42.9927 101.179 42.23C101.179 41.294 101.421 40.5573 101.907 40.02C102.392 39.4653 103.181 39.0667 104.273 38.824C105.365 38.5813 106.829 38.46 108.667 38.46H109.967V40.332H108.693C107.618 40.332 106.76 40.384 106.119 40.488C105.477 40.592 105.018 40.774 104.741 41.034C104.481 41.2767 104.351 41.6233 104.351 42.074C104.351 42.646 104.55 43.114 104.949 43.478C105.347 43.842 105.902 44.024 106.613 44.024C107.185 44.024 107.687 43.894 108.121 43.634C108.571 43.3567 108.927 42.984 109.187 42.516C109.447 42.048 109.577 41.5107 109.577 40.904V37.914C109.577 37.0473 109.386 36.4233 109.005 36.042C108.623 35.6607 107.982 35.47 107.081 35.47C106.578 35.47 106.032 35.5307 105.443 35.652C104.871 35.7733 104.264 35.9813 103.623 36.276C103.293 36.432 102.999 36.4753 102.739 36.406C102.496 36.3367 102.305 36.198 102.167 35.99C102.028 35.7647 101.959 35.522 101.959 35.262C101.959 35.002 102.028 34.7507 102.167 34.508C102.305 34.248 102.539 34.0573 102.869 33.936C103.666 33.6067 104.429 33.3727 105.157 33.234C105.902 33.0953 106.578 33.026 107.185 33.026C108.433 33.026 109.455 33.2167 110.253 33.598C111.067 33.9793 111.674 34.56 112.073 35.34C112.471 36.1027 112.671 37.0907 112.671 38.304V44.544C112.671 45.0813 112.541 45.4973 112.281 45.792C112.021 46.0693 111.648 46.208 111.163 46.208C110.677 46.208 110.296 46.0693 110.019 45.792C109.759 45.4973 109.629 45.0813 109.629 44.544V43.296H109.837C109.715 43.9027 109.473 44.4313 109.109 44.882C108.762 45.3153 108.32 45.6533 107.783 45.896C107.245 46.1387 106.63 46.26 105.937 46.26ZM117.581 50.888C117.061 50.888 116.663 50.7493 116.385 50.472C116.108 50.1947 115.969 49.7873 115.969 49.25V34.716C115.969 34.1787 116.108 33.7713 116.385 33.494C116.663 33.2167 117.053 33.078 117.555 33.078C118.075 33.078 118.474 33.2167 118.751 33.494C119.029 33.7713 119.167 34.1787 119.167 34.716V36.744L118.881 35.964C119.141 35.08 119.67 34.3693 120.467 33.832C121.282 33.2947 122.227 33.026 123.301 33.026C124.411 33.026 125.381 33.2947 126.213 33.832C127.063 34.3693 127.721 35.132 128.189 36.12C128.657 37.0907 128.891 38.2607 128.891 39.63C128.891 40.982 128.657 42.1607 128.189 43.166C127.721 44.154 127.071 44.9167 126.239 45.454C125.407 45.9913 124.428 46.26 123.301 46.26C122.244 46.26 121.317 46 120.519 45.48C119.722 44.9427 119.185 44.2493 118.907 43.4H119.219V49.25C119.219 49.7873 119.072 50.1947 118.777 50.472C118.5 50.7493 118.101 50.888 117.581 50.888ZM122.391 43.79C123.033 43.79 123.596 43.634 124.081 43.322C124.567 43.01 124.939 42.5507 125.199 41.944C125.477 41.32 125.615 40.5487 125.615 39.63C125.615 38.2433 125.321 37.212 124.731 36.536C124.142 35.8427 123.362 35.496 122.391 35.496C121.75 35.496 121.187 35.652 120.701 35.964C120.216 36.2587 119.835 36.718 119.557 37.342C119.297 37.9487 119.167 38.7113 119.167 39.63C119.167 40.9993 119.462 42.0393 120.051 42.75C120.641 43.4433 121.421 43.79 122.391 43.79ZM133.171 50.888C132.651 50.888 132.252 50.7493 131.975 50.472C131.698 50.1947 131.559 49.7873 131.559 49.25V34.716C131.559 34.1787 131.698 33.7713 131.975 33.494C132.252 33.2167 132.642 33.078 133.145 33.078C133.665 33.078 134.064 33.2167 134.341 33.494C134.618 33.7713 134.757 34.1787 134.757 34.716V36.744L134.471 35.964C134.731 35.08 135.26 34.3693 136.057 33.832C136.872 33.2947 137.816 33.026 138.891 33.026C140 33.026 140.971 33.2947 141.803 33.832C142.652 34.3693 143.311 35.132 143.779 36.12C144.247 37.0907 144.481 38.2607 144.481 39.63C144.481 40.982 144.247 42.1607 143.779 43.166C143.311 44.154 142.661 44.9167 141.829 45.454C140.997 45.9913 140.018 46.26 138.891 46.26C137.834 46.26 136.906 46 136.109 45.48C135.312 44.9427 134.774 44.2493 134.497 43.4H134.809V49.25C134.809 49.7873 134.662 50.1947 134.367 50.472C134.09 50.7493 133.691 50.888 133.171 50.888ZM137.981 43.79C138.622 43.79 139.186 43.634 139.671 43.322C140.156 43.01 140.529 42.5507 140.789 41.944C141.066 41.32 141.205 40.5487 141.205 39.63C141.205 38.2433 140.91 37.212 140.321 36.536C139.732 35.8427 138.952 35.496 137.981 35.496C137.34 35.496 136.776 35.652 136.291 35.964C135.806 36.2587 135.424 36.718 135.147 37.342C134.887 37.9487 134.757 38.7113 134.757 39.63C134.757 40.9993 135.052 42.0393 135.641 42.75C136.23 43.4433 137.01 43.79 137.981 43.79ZM158.16 50.238C157.085 48.5393 156.305 46.754 155.82 44.882C155.352 42.9927 155.118 41.086 155.118 39.162C155.118 37.8793 155.222 36.6053 155.43 35.34C155.638 34.0747 155.967 32.8353 156.418 31.622C156.868 30.3913 157.449 29.2127 158.16 28.086C158.35 27.774 158.602 27.5833 158.914 27.514C159.243 27.4273 159.546 27.4447 159.824 27.566C160.118 27.6873 160.335 27.9127 160.474 28.242C160.612 28.554 160.595 28.9527 160.422 29.438C160.006 30.5473 159.659 31.6393 159.382 32.714C159.122 33.7713 158.922 34.8287 158.784 35.886C158.662 36.9433 158.602 38.0353 158.602 39.162C158.602 40.2887 158.671 41.3807 158.81 42.438C158.948 43.4953 159.156 44.5527 159.434 45.61C159.711 46.6673 160.04 47.7593 160.422 48.886C160.595 49.3713 160.612 49.77 160.474 50.082C160.335 50.4113 160.118 50.6367 159.824 50.758C159.546 50.8793 159.243 50.8967 158.914 50.81C158.602 50.7407 158.35 50.55 158.16 50.238ZM169.148 46.26C167.813 46.26 166.652 45.9913 165.664 45.454C164.676 44.8993 163.913 44.1193 163.376 43.114C162.839 42.1087 162.57 40.93 162.57 39.578C162.57 38.5553 162.717 37.6453 163.012 36.848C163.324 36.0333 163.766 35.3487 164.338 34.794C164.91 34.222 165.603 33.7887 166.418 33.494C167.233 33.182 168.143 33.026 169.148 33.026C169.72 33.026 170.335 33.104 170.994 33.26C171.67 33.416 172.303 33.676 172.892 34.04C173.169 34.2133 173.351 34.4213 173.438 34.664C173.525 34.9067 173.542 35.158 173.49 35.418C173.438 35.6607 173.325 35.8773 173.152 36.068C172.996 36.2413 172.797 36.354 172.554 36.406C172.311 36.4407 172.043 36.38 171.748 36.224C171.367 35.9987 170.977 35.834 170.578 35.73C170.179 35.6087 169.798 35.548 169.434 35.548C168.862 35.548 168.359 35.6433 167.926 35.834C167.493 36.0073 167.12 36.2673 166.808 36.614C166.513 36.9433 166.288 37.3593 166.132 37.862C165.976 38.3647 165.898 38.9453 165.898 39.604C165.898 40.8867 166.201 41.9007 166.808 42.646C167.432 43.374 168.307 43.738 169.434 43.738C169.798 43.738 170.171 43.686 170.552 43.582C170.951 43.478 171.349 43.3133 171.748 43.088C172.043 42.932 172.303 42.88 172.528 42.932C172.771 42.984 172.97 43.1053 173.126 43.296C173.282 43.4693 173.377 43.686 173.412 43.946C173.447 44.1887 173.412 44.4313 173.308 44.674C173.221 44.9167 173.048 45.116 172.788 45.272C172.216 45.6187 171.609 45.87 170.968 46.026C170.327 46.182 169.72 46.26 169.148 46.26ZM181.08 46.26C179.762 46.26 178.618 45.9913 177.648 45.454C176.677 44.9167 175.923 44.154 175.386 43.166C174.848 42.1607 174.58 40.982 174.58 39.63C174.58 38.6073 174.727 37.6973 175.022 36.9C175.334 36.0853 175.776 35.392 176.348 34.82C176.92 34.2307 177.604 33.7887 178.402 33.494C179.199 33.182 180.092 33.026 181.08 33.026C182.397 33.026 183.541 33.2947 184.512 33.832C185.482 34.3693 186.236 35.132 186.774 36.12C187.311 37.108 187.58 38.278 187.58 39.63C187.58 40.6527 187.424 41.5713 187.112 42.386C186.817 43.2007 186.384 43.9027 185.812 44.492C185.24 45.064 184.555 45.506 183.758 45.818C182.96 46.1127 182.068 46.26 181.08 46.26ZM181.08 43.79C181.721 43.79 182.284 43.634 182.77 43.322C183.255 43.01 183.628 42.5507 183.888 41.944C184.165 41.32 184.304 40.5487 184.304 39.63C184.304 38.2433 184.009 37.212 183.42 36.536C182.83 35.8427 182.05 35.496 181.08 35.496C180.438 35.496 179.875 35.652 179.39 35.964C178.904 36.2587 178.523 36.718 178.246 37.342C177.986 37.9487 177.856 38.7113 177.856 39.63C177.856 40.9993 178.15 42.0393 178.74 42.75C179.329 43.4433 180.109 43.79 181.08 43.79ZM191.926 46.208C191.406 46.208 191.008 46.0693 190.73 45.792C190.453 45.4973 190.314 45.0813 190.314 44.544V34.716C190.314 34.1787 190.453 33.7713 190.73 33.494C191.008 33.2167 191.398 33.078 191.9 33.078C192.403 33.078 192.793 33.2167 193.07 33.494C193.348 33.7713 193.486 34.1787 193.486 34.716V36.614L193.2 35.834C193.547 34.9673 194.084 34.2827 194.812 33.78C195.54 33.2773 196.407 33.026 197.412 33.026C198.435 33.026 199.276 33.2687 199.934 33.754C200.593 34.2393 201.052 34.9847 201.312 35.99H200.948C201.295 35.0713 201.867 34.352 202.664 33.832C203.462 33.2947 204.38 33.026 205.42 33.026C206.391 33.026 207.188 33.2167 207.812 33.598C208.454 33.9793 208.93 34.56 209.242 35.34C209.554 36.1027 209.71 37.0733 209.71 38.252V44.544C209.71 45.0813 209.563 45.4973 209.268 45.792C208.991 46.0693 208.592 46.208 208.072 46.208C207.552 46.208 207.154 46.0693 206.876 45.792C206.599 45.4973 206.46 45.0813 206.46 44.544V38.382C206.46 37.4113 206.296 36.7007 205.966 36.25C205.654 35.7993 205.117 35.574 204.354 35.574C203.505 35.574 202.838 35.8773 202.352 36.484C201.867 37.0733 201.624 37.8967 201.624 38.954V44.544C201.624 45.0813 201.486 45.4973 201.208 45.792C200.931 46.0693 200.532 46.208 200.012 46.208C199.492 46.208 199.085 46.0693 198.79 45.792C198.513 45.4973 198.374 45.0813 198.374 44.544V38.382C198.374 37.4113 198.21 36.7007 197.88 36.25C197.568 35.7993 197.04 35.574 196.294 35.574C195.445 35.574 194.778 35.8773 194.292 36.484C193.807 37.0733 193.564 37.8967 193.564 38.954V44.544C193.564 45.6533 193.018 46.208 191.926 46.208ZM214.675 46.182C214.155 46.182 213.756 46.026 213.479 45.714C213.202 45.402 213.063 44.9687 213.063 44.414V34.872C213.063 34.3 213.202 33.8667 213.479 33.572C213.756 33.26 214.155 33.104 214.675 33.104C215.195 33.104 215.594 33.26 215.871 33.572C216.166 33.8667 216.313 34.3 216.313 34.872V44.414C216.313 44.9687 216.174 45.402 215.897 45.714C215.62 46.026 215.212 46.182 214.675 46.182ZM214.675 30.686C214.068 30.686 213.592 30.5387 213.245 30.244C212.916 29.932 212.751 29.5073 212.751 28.97C212.751 28.4153 212.916 27.9907 213.245 27.696C213.592 27.4013 214.068 27.254 214.675 27.254C215.299 27.254 215.776 27.4013 216.105 27.696C216.434 27.9907 216.599 28.4153 216.599 28.97C216.599 29.5073 216.434 29.932 216.105 30.244C215.776 30.5387 215.299 30.686 214.675 30.686ZM221.302 46.208C220.782 46.208 220.383 46.0693 220.106 45.792C219.829 45.4973 219.69 45.0813 219.69 44.544V34.716C219.69 34.1787 219.829 33.7713 220.106 33.494C220.383 33.2167 220.773 33.078 221.276 33.078C221.779 33.078 222.169 33.2167 222.446 33.494C222.723 33.7713 222.862 34.1787 222.862 34.716V36.484L222.576 35.834C222.957 34.9153 223.547 34.222 224.344 33.754C225.159 33.2687 226.077 33.026 227.1 33.026C228.123 33.026 228.963 33.2167 229.622 33.598C230.281 33.9793 230.775 34.56 231.104 35.34C231.433 36.1027 231.598 37.0733 231.598 38.252V44.544C231.598 45.0813 231.459 45.4973 231.182 45.792C230.905 46.0693 230.506 46.208 229.986 46.208C229.466 46.208 229.059 46.0693 228.764 45.792C228.487 45.4973 228.348 45.0813 228.348 44.544V38.408C228.348 37.42 228.157 36.7007 227.776 36.25C227.412 35.7993 226.84 35.574 226.06 35.574C225.107 35.574 224.344 35.8773 223.772 36.484C223.217 37.0733 222.94 37.862 222.94 38.85V44.544C222.94 45.6533 222.394 46.208 221.302 46.208ZM240.827 50.94C239.891 50.94 238.981 50.8533 238.097 50.68C237.23 50.5067 236.442 50.238 235.731 49.874C235.402 49.7007 235.176 49.4927 235.055 49.25C234.951 49.0073 234.916 48.756 234.951 48.496C235.003 48.2533 235.107 48.0367 235.263 47.846C235.436 47.6553 235.644 47.5253 235.887 47.456C236.13 47.3867 236.381 47.4213 236.641 47.56C237.404 47.9413 238.123 48.184 238.799 48.288C239.492 48.4093 240.082 48.47 240.567 48.47C241.728 48.47 242.595 48.184 243.167 47.612C243.756 47.0573 244.051 46.2253 244.051 45.116V42.776H244.285C244.025 43.66 243.479 44.3707 242.647 44.908C241.832 45.428 240.905 45.688 239.865 45.688C238.721 45.688 237.724 45.428 236.875 44.908C236.026 44.3707 235.367 43.6253 234.899 42.672C234.431 41.7187 234.197 40.6093 234.197 39.344C234.197 38.3907 234.327 37.5327 234.587 36.77C234.864 35.99 235.246 35.3227 235.731 34.768C236.234 34.2133 236.832 33.7887 237.525 33.494C238.236 33.182 239.016 33.026 239.865 33.026C240.94 33.026 241.876 33.2947 242.673 33.832C243.488 34.352 244.016 35.0453 244.259 35.912L243.999 36.562V34.716C243.999 34.1787 244.138 33.7713 244.415 33.494C244.71 33.2167 245.108 33.078 245.611 33.078C246.131 33.078 246.53 33.2167 246.807 33.494C247.084 33.7713 247.223 34.1787 247.223 34.716V44.726C247.223 46.7887 246.677 48.34 245.585 49.38C244.493 50.42 242.907 50.94 240.827 50.94ZM240.749 43.218C241.425 43.218 242.006 43.062 242.491 42.75C242.976 42.438 243.349 41.996 243.609 41.424C243.886 40.8347 244.025 40.1413 244.025 39.344C244.025 38.148 243.73 37.212 243.141 36.536C242.552 35.8427 241.754 35.496 240.749 35.496C240.073 35.496 239.492 35.652 239.007 35.964C238.522 36.276 238.14 36.718 237.863 37.29C237.603 37.862 237.473 38.5467 237.473 39.344C237.473 40.54 237.768 41.4847 238.357 42.178C238.946 42.8713 239.744 43.218 240.749 43.218ZM264.279 46.26C263.516 46.26 262.754 46.1993 261.991 46.078C261.228 45.974 260.509 45.8093 259.833 45.584C259.157 45.3413 258.55 45.0467 258.013 44.7C257.701 44.492 257.484 44.2407 257.363 43.946C257.242 43.6513 257.198 43.3653 257.233 43.088C257.285 42.7933 257.398 42.542 257.571 42.334C257.762 42.1087 257.996 41.97 258.273 41.918C258.55 41.866 258.854 41.944 259.183 42.152C259.946 42.6027 260.752 42.932 261.601 43.14C262.45 43.348 263.343 43.452 264.279 43.452C265.648 43.452 266.645 43.2267 267.269 42.776C267.893 42.308 268.205 41.71 268.205 40.982C268.205 40.3753 267.98 39.8987 267.529 39.552C267.096 39.2053 266.342 38.9193 265.267 38.694L262.407 38.096C260.76 37.7493 259.53 37.1687 258.715 36.354C257.918 35.522 257.519 34.43 257.519 33.078C257.519 32.2287 257.692 31.4573 258.039 30.764C258.386 30.0707 258.871 29.4727 259.495 28.97C260.136 28.4673 260.89 28.086 261.757 27.826C262.641 27.5487 263.612 27.41 264.669 27.41C265.709 27.41 266.697 27.54 267.633 27.8C268.569 28.06 269.41 28.4413 270.155 28.944C270.432 29.1347 270.614 29.3687 270.701 29.646C270.805 29.9233 270.831 30.2007 270.779 30.478C270.727 30.738 270.606 30.9633 270.415 31.154C270.224 31.3447 269.982 31.4573 269.687 31.492C269.41 31.5267 269.089 31.44 268.725 31.232C268.084 30.868 267.434 30.608 266.775 30.452C266.116 30.296 265.406 30.218 264.643 30.218C263.846 30.218 263.161 30.3307 262.589 30.556C262.017 30.7813 261.575 31.102 261.263 31.518C260.968 31.9167 260.821 32.3933 260.821 32.948C260.821 33.572 261.029 34.0747 261.445 34.456C261.861 34.82 262.572 35.106 263.577 35.314L266.411 35.912C268.127 36.276 269.401 36.848 270.233 37.628C271.082 38.408 271.507 39.448 271.507 40.748C271.507 41.58 271.334 42.334 270.987 43.01C270.658 43.686 270.172 44.2667 269.531 44.752C268.907 45.2373 268.153 45.61 267.269 45.87C266.385 46.13 265.388 46.26 264.279 46.26ZM279.849 46.26C278.532 46.26 277.388 45.9913 276.417 45.454C275.447 44.9167 274.693 44.154 274.155 43.166C273.618 42.1607 273.349 40.982 273.349 39.63C273.349 38.6073 273.497 37.6973 273.791 36.9C274.103 36.0853 274.545 35.392 275.117 34.82C275.689 34.2307 276.374 33.7887 277.171 33.494C277.969 33.182 278.861 33.026 279.849 33.026C281.167 33.026 282.311 33.2947 283.281 33.832C284.252 34.3693 285.006 35.132 285.543 36.12C286.081 37.108 286.349 38.278 286.349 39.63C286.349 40.6527 286.193 41.5713 285.881 42.386C285.587 43.2007 285.153 43.9027 284.581 44.492C284.009 45.064 283.325 45.506 282.527 45.818C281.73 46.1127 280.837 46.26 279.849 46.26ZM279.849 43.79C280.491 43.79 281.054 43.634 281.539 43.322C282.025 43.01 282.397 42.5507 282.657 41.944C282.935 41.32 283.073 40.5487 283.073 39.63C283.073 38.2433 282.779 37.212 282.189 36.536C281.6 35.8427 280.82 35.496 279.849 35.496C279.208 35.496 278.645 35.652 278.159 35.964C277.674 36.2587 277.293 36.718 277.015 37.342C276.755 37.9487 276.625 38.7113 276.625 39.63C276.625 40.9993 276.92 42.0393 277.509 42.75C278.099 43.4433 278.879 43.79 279.849 43.79ZM294.83 46.26C293.512 46.26 292.368 45.9913 291.398 45.454C290.427 44.9167 289.673 44.154 289.136 43.166C288.598 42.1607 288.33 40.982 288.33 39.63C288.33 38.6073 288.477 37.6973 288.772 36.9C289.084 36.0853 289.526 35.392 290.098 34.82C290.67 34.2307 291.354 33.7887 292.152 33.494C292.949 33.182 293.842 33.026 294.83 33.026C296.147 33.026 297.291 33.2947 298.262 33.832C299.232 34.3693 299.986 35.132 300.524 36.12C301.061 37.108 301.33 38.278 301.33 39.63C301.33 40.6527 301.174 41.5713 300.862 42.386C300.567 43.2007 300.134 43.9027 299.562 44.492C298.99 45.064 298.305 45.506 297.508 45.818C296.71 46.1127 295.818 46.26 294.83 46.26ZM294.83 43.79C295.471 43.79 296.034 43.634 296.52 43.322C297.005 43.01 297.378 42.5507 297.638 41.944C297.915 41.32 298.054 40.5487 298.054 39.63C298.054 38.2433 297.759 37.212 297.17 36.536C296.58 35.8427 295.8 35.496 294.83 35.496C294.188 35.496 293.625 35.652 293.14 35.964C292.654 36.2587 292.273 36.718 291.996 37.342C291.736 37.9487 291.606 38.7113 291.606 39.63C291.606 40.9993 291.9 42.0393 292.49 42.75C293.079 43.4433 293.859 43.79 294.83 43.79ZM305.624 46.208C305.104 46.208 304.706 46.0693 304.428 45.792C304.151 45.4973 304.012 45.0813 304.012 44.544V34.716C304.012 34.1787 304.151 33.7713 304.428 33.494C304.706 33.2167 305.096 33.078 305.598 33.078C306.101 33.078 306.491 33.2167 306.768 33.494C307.046 33.7713 307.184 34.1787 307.184 34.716V36.484L306.898 35.834C307.28 34.9153 307.869 34.222 308.666 33.754C309.481 33.2687 310.4 33.026 311.422 33.026C312.445 33.026 313.286 33.2167 313.944 33.598C314.603 33.9793 315.097 34.56 315.426 35.34C315.756 36.1027 315.92 37.0733 315.92 38.252V44.544C315.92 45.0813 315.782 45.4973 315.504 45.792C315.227 46.0693 314.828 46.208 314.308 46.208C313.788 46.208 313.381 46.0693 313.086 45.792C312.809 45.4973 312.67 45.0813 312.67 44.544V38.408C312.67 37.42 312.48 36.7007 312.098 36.25C311.734 35.7993 311.162 35.574 310.382 35.574C309.429 35.574 308.666 35.8773 308.094 36.484C307.54 37.0733 307.262 37.862 307.262 38.85V44.544C307.262 45.6533 306.716 46.208 305.624 46.208ZM321.197 50.238C321.007 50.55 320.747 50.7407 320.417 50.81C320.105 50.8967 319.802 50.8707 319.507 50.732C319.213 50.6107 318.996 50.394 318.857 50.082C318.736 49.77 318.762 49.3713 318.935 48.886C319.369 47.7593 319.715 46.6673 319.975 45.61C320.235 44.5527 320.426 43.4953 320.547 42.438C320.686 41.3807 320.755 40.2887 320.755 39.162C320.755 38.0353 320.686 36.9433 320.547 35.886C320.409 34.8287 320.201 33.7713 319.923 32.714C319.663 31.6567 319.334 30.5647 318.935 29.438C318.762 28.9527 318.745 28.554 318.883 28.242C319.022 27.9127 319.239 27.6873 319.533 27.566C319.828 27.4447 320.131 27.4273 320.443 27.514C320.755 27.5833 321.007 27.774 321.197 28.086C322.255 29.7673 323.026 31.5527 323.511 33.442C323.997 35.3313 324.239 37.238 324.239 39.162C324.239 40.4447 324.127 41.7187 323.901 42.984C323.693 44.2493 323.364 45.4887 322.913 46.702C322.48 47.9327 321.908 49.1113 321.197 50.238Z" fill="black"/>
</svg>
