<svg width="1888" height="161" viewBox="0 0 1888 161" fill="none" xmlns="http://www.w3.org/2000/svg">
<path d="M2 82.5C0.89543 82.5 -3.91405e-08 81.6046 -8.74228e-08 80.5C-1.35705e-07 79.3954 0.89543 78.5 2 78.5L112 78.5L112 82.5L2 82.5Z" fill="#E0E0E0" fill-opacity="0.2"/>
<rect x="112" y="72.5" width="4" height="16" rx="2" fill="#E0E0E0" fill-opacity="0.2"/>
<rect x="188.665" y="65.5" width="5.39044" height="30" rx="2.69522" fill="#E0E0E0" fill-opacity="0.2"/>
<rect x="226.398" y="52" width="5.39044" height="57" rx="2.69522" fill="#E0E0E0" fill-opacity="0.2"/>
<rect x="264.131" y="43" width="5.39044" height="75" rx="2.69522" fill="#E0E0E0" fill-opacity="0.2"/>
<rect x="301.864" y="33" width="5.39044" height="95" rx="2.69522" fill="#E0E0E0" fill-opacity="0.2"/>
<rect x="339.597" y="22" width="5.39044" height="117" rx="2.69522" fill="#E0E0E0" fill-opacity="0.2"/>
<rect x="377.33" y="12" width="5.39044" height="137" rx="2.69522" fill="#E0E0E0" fill-opacity="0.2"/>
<rect x="415.063" y="12" width="5.39044" height="137" rx="2.69522" fill="#E0E0E0" fill-opacity="0.2"/>
<rect x="452.797" y="19.5" width="5.39044" height="122" rx="2.69522" fill="#E0E0E0" fill-opacity="0.2"/>
<rect x="490.53" y="29" width="5.39044" height="103" rx="2.69522" fill="#E0E0E0" fill-opacity="0.2"/>
<rect x="528.263" y="38.5" width="5.39044" height="84" rx="2.69522" fill="#E0E0E0" fill-opacity="0.2"/>
<rect x="565.996" y="51.5" width="5.39044" height="58" rx="2.69522" fill="#E0E0E0" fill-opacity="0.2"/>
<rect x="603.729" y="65" width="5.39044" height="31" rx="2.69522" fill="#E0E0E0" fill-opacity="0.2"/>
<rect x="641.462" y="50" width="5.39044" height="61" rx="2.69522" fill="#E0E0E0" fill-opacity="0.2"/>
<rect x="679.195" y="40.5" width="5.39044" height="80" rx="2.69522" fill="#E0E0E0" fill-opacity="0.2"/>
<rect x="716.928" y="31.5" width="5.39044" height="98" rx="2.69522" fill="#E0E0E0" fill-opacity="0.2"/>
<rect x="754.661" y="22.5" width="5.39044" height="116" rx="2.69522" fill="#E0E0E0" fill-opacity="0.2"/>
<rect x="792.394" y="8.5" width="5.39044" height="144" rx="2.69522" fill="#E0E0E0" fill-opacity="0.2"/>
<rect x="830.127" y="19.5" width="5.39044" height="122" rx="2.69522" fill="#E0E0E0" fill-opacity="0.2"/>
<rect x="867.86" y="8.5" width="5.39044" height="144" rx="2.69522" fill="#E0E0E0" fill-opacity="0.2"/>
<rect x="905.593" width="5.39044" height="161" rx="2.69522" fill="#E0E0E0" fill-opacity="0.2"/>
<rect x="943.326" y="0.5" width="5.39044" height="160" rx="2.69522" fill="#E0E0E0" fill-opacity="0.2"/>
<rect x="981.059" y="28" width="5.39044" height="105" rx="2.69522" fill="#E0E0E0" fill-opacity="0.2"/>
<rect x="1018.79" y="11" width="5.39044" height="139" rx="2.69522" fill="#E0E0E0" fill-opacity="0.2"/>
<rect x="1056.53" y="20.5" width="5.39044" height="120" rx="2.69522" fill="#E0E0E0" fill-opacity="0.2"/>
<rect x="1094.26" y="30.5" width="5.39044" height="100" rx="2.69522" fill="#E0E0E0" fill-opacity="0.2"/>
<rect x="1131.99" y="42" width="5.39044" height="77" rx="2.69522" fill="#E0E0E0" fill-opacity="0.2"/>
<rect x="1169.72" y="56" width="5.39044" height="49" rx="2.69522" fill="#E0E0E0" fill-opacity="0.2"/>
<rect x="1207.46" y="42" width="5.39044" height="77" rx="2.69522" fill="#E0E0E0" fill-opacity="0.2"/>
<rect x="1245.19" y="20.5" width="5.39044" height="120" rx="2.69522" fill="#E0E0E0" fill-opacity="0.2"/>
<rect x="1282.92" y="31.5" width="5.39044" height="98" rx="2.69522" fill="#E0E0E0" fill-opacity="0.2"/>
<rect x="1320.66" y="43.5" width="5.39044" height="74" rx="2.69522" fill="#E0E0E0" fill-opacity="0.2"/>
<rect x="1358.39" y="54" width="5.39044" height="53" rx="2.69522" fill="#E0E0E0" fill-opacity="0.2"/>
<rect x="1396.12" y="45.5" width="5.39044" height="70" rx="2.69522" fill="#E0E0E0" fill-opacity="0.2"/>
<rect x="1433.86" y="36.5" width="5.39044" height="88" rx="2.69522" fill="#E0E0E0" fill-opacity="0.2"/>
<rect x="1471.59" y="42.5" width="5.39044" height="76" rx="2.69522" fill="#E0E0E0" fill-opacity="0.2"/>
<rect x="1509.32" y="35.5" width="5.39044" height="90" rx="2.69522" fill="#E0E0E0" fill-opacity="0.2"/>
<rect x="1547.05" y="44.5" width="5.39044" height="72" rx="2.69522" fill="#E0E0E0" fill-opacity="0.2"/>
<rect x="1584.79" y="51.5" width="5.39044" height="58" rx="2.69522" fill="#E0E0E0" fill-opacity="0.2"/>
<rect x="1622.52" y="60" width="5.39044" height="41" rx="2.69522" fill="#E0E0E0" fill-opacity="0.2"/>
<rect x="1660.25" y="60" width="4" height="41" rx="2" fill="#E0E0E0" fill-opacity="0.2"/>
<path d="M1664.25 82.5L1664.25 78.5L1827.25 78.5C1828.36 78.5 1829.25 79.3954 1829.25 80.5C1829.25 81.6046 1828.36 82.5 1827.25 82.5L1664.25 82.5Z" fill="#E0E0E0" fill-opacity="0.2"/>
</svg>
